<svg width="732" height="297" viewBox="0 0 732 297" fill="none" xmlns="http://www.w3.org/2000/svg">
<g opacity="0.75">
<path d="M245.641 268.328L246.188 275.016H245.641C245.089 273.349 244.375 272.094 243.5 271.25C242.24 270.031 240.62 269.422 238.641 269.422C235.943 269.422 233.891 270.49 232.484 272.625C231.307 274.427 230.719 276.573 230.719 279.062C230.719 281.083 231.109 282.927 231.891 284.594C232.672 286.26 233.693 287.484 234.953 288.266C236.224 289.036 237.526 289.422 238.859 289.422C239.641 289.422 240.396 289.323 241.125 289.125C241.854 288.927 242.557 288.635 243.234 288.25V282.125C243.234 281.062 243.151 280.37 242.984 280.047C242.828 279.714 242.578 279.464 242.234 279.297C241.901 279.12 241.307 279.031 240.453 279.031V278.438H248.656V279.031H248.266C247.453 279.031 246.896 279.302 246.594 279.844C246.385 280.229 246.281 280.99 246.281 282.125V288.609C245.083 289.255 243.901 289.729 242.734 290.031C241.568 290.333 240.271 290.484 238.844 290.484C234.75 290.484 231.641 289.172 229.516 286.547C227.922 284.578 227.125 282.307 227.125 279.734C227.125 277.87 227.573 276.083 228.469 274.375C229.531 272.344 230.99 270.781 232.844 269.688C234.396 268.781 236.229 268.328 238.344 268.328C239.115 268.328 239.812 268.391 240.438 268.516C241.073 268.641 241.969 268.917 243.125 269.344C243.708 269.562 244.099 269.672 244.297 269.672C244.495 269.672 244.661 269.583 244.797 269.406C244.943 269.219 245.031 268.859 245.062 268.328H245.641ZM254.312 275.266V278.484C255.51 276.339 256.74 275.266 258 275.266C258.573 275.266 259.047 275.443 259.422 275.797C259.797 276.141 259.984 276.542 259.984 277C259.984 277.406 259.849 277.75 259.578 278.031C259.307 278.312 258.984 278.453 258.609 278.453C258.245 278.453 257.833 278.276 257.375 277.922C256.927 277.557 256.594 277.375 256.375 277.375C256.188 277.375 255.984 277.479 255.766 277.688C255.297 278.115 254.812 278.818 254.312 279.797V286.656C254.312 287.448 254.411 288.047 254.609 288.453C254.745 288.734 254.984 288.969 255.328 289.156C255.672 289.344 256.167 289.438 256.812 289.438V290H249.484V289.438C250.214 289.438 250.755 289.323 251.109 289.094C251.37 288.927 251.552 288.661 251.656 288.297C251.708 288.12 251.734 287.615 251.734 286.781V281.234C251.734 279.568 251.698 278.578 251.625 278.266C251.562 277.943 251.438 277.708 251.25 277.562C251.073 277.417 250.849 277.344 250.578 277.344C250.255 277.344 249.891 277.422 249.484 277.578L249.328 277.016L253.656 275.266H254.312ZM263.188 281.078C263.177 283.203 263.693 284.87 264.734 286.078C265.776 287.286 267 287.891 268.406 287.891C269.344 287.891 270.156 287.635 270.844 287.125C271.542 286.604 272.125 285.719 272.594 284.469L273.078 284.781C272.859 286.208 272.224 287.51 271.172 288.688C270.12 289.854 268.802 290.438 267.219 290.438C265.5 290.438 264.026 289.771 262.797 288.438C261.578 287.094 260.969 285.292 260.969 283.031C260.969 280.583 261.594 278.677 262.844 277.312C264.104 275.938 265.682 275.25 267.578 275.25C269.182 275.25 270.5 275.781 271.531 276.844C272.562 277.896 273.078 279.307 273.078 281.078H263.188ZM263.188 280.172H269.812C269.76 279.255 269.651 278.609 269.484 278.234C269.224 277.651 268.833 277.193 268.312 276.859C267.802 276.526 267.266 276.359 266.703 276.359C265.839 276.359 265.062 276.698 264.375 277.375C263.698 278.042 263.302 278.974 263.188 280.172ZM277.406 281.078C277.396 283.203 277.911 284.87 278.953 286.078C279.995 287.286 281.219 287.891 282.625 287.891C283.562 287.891 284.375 287.635 285.062 287.125C285.76 286.604 286.344 285.719 286.812 284.469L287.297 284.781C287.078 286.208 286.443 287.51 285.391 288.688C284.339 289.854 283.021 290.438 281.438 290.438C279.719 290.438 278.245 289.771 277.016 288.438C275.797 287.094 275.188 285.292 275.188 283.031C275.188 280.583 275.812 278.677 277.062 277.312C278.323 275.938 279.901 275.25 281.797 275.25C283.401 275.25 284.719 275.781 285.75 276.844C286.781 277.896 287.297 279.307 287.297 281.078H277.406ZM277.406 280.172H284.031C283.979 279.255 283.87 278.609 283.703 278.234C283.443 277.651 283.052 277.193 282.531 276.859C282.021 276.526 281.484 276.359 280.922 276.359C280.057 276.359 279.281 276.698 278.594 277.375C277.917 278.042 277.521 278.974 277.406 280.172ZM293.391 278.297C295.068 276.276 296.667 275.266 298.188 275.266C298.969 275.266 299.641 275.464 300.203 275.859C300.766 276.245 301.214 276.885 301.547 277.781C301.776 278.406 301.891 279.365 301.891 280.656V286.766C301.891 287.672 301.964 288.286 302.109 288.609C302.224 288.87 302.406 289.073 302.656 289.219C302.917 289.365 303.391 289.438 304.078 289.438V290H297V289.438H297.297C297.964 289.438 298.427 289.339 298.688 289.141C298.958 288.932 299.146 288.63 299.25 288.234C299.292 288.078 299.312 287.589 299.312 286.766V280.906C299.312 279.604 299.141 278.661 298.797 278.078C298.464 277.484 297.896 277.188 297.094 277.188C295.854 277.188 294.62 277.865 293.391 279.219V286.766C293.391 287.734 293.448 288.333 293.562 288.562C293.708 288.865 293.906 289.089 294.156 289.234C294.417 289.37 294.938 289.438 295.719 289.438V290H288.641V289.438H288.953C289.682 289.438 290.172 289.255 290.422 288.891C290.682 288.516 290.812 287.807 290.812 286.766V281.453C290.812 279.734 290.771 278.688 290.688 278.312C290.615 277.938 290.495 277.682 290.328 277.547C290.172 277.411 289.958 277.344 289.688 277.344C289.396 277.344 289.047 277.422 288.641 277.578L288.406 277.016L292.719 275.266H293.391V278.297ZM330.562 284.141L331.078 284.25L329.266 290H312.859V289.422H313.656C314.552 289.422 315.193 289.13 315.578 288.547C315.797 288.214 315.906 287.443 315.906 286.234V272.562C315.906 271.24 315.76 270.411 315.469 270.078C315.062 269.62 314.458 269.391 313.656 269.391H312.859V268.812H322.453V269.391C321.328 269.38 320.536 269.484 320.078 269.703C319.63 269.922 319.323 270.198 319.156 270.531C318.99 270.865 318.906 271.661 318.906 272.922V286.234C318.906 287.099 318.99 287.693 319.156 288.016C319.281 288.234 319.474 288.396 319.734 288.5C319.995 288.604 320.807 288.656 322.172 288.656H323.719C325.344 288.656 326.484 288.536 327.141 288.297C327.797 288.057 328.396 287.635 328.938 287.031C329.479 286.417 330.021 285.453 330.562 284.141ZM336.422 267.781C336.859 267.781 337.229 267.938 337.531 268.25C337.844 268.552 338 268.922 338 269.359C338 269.797 337.844 270.172 337.531 270.484C337.229 270.797 336.859 270.953 336.422 270.953C335.984 270.953 335.609 270.797 335.297 270.484C334.984 270.172 334.828 269.797 334.828 269.359C334.828 268.922 334.979 268.552 335.281 268.25C335.594 267.938 335.974 267.781 336.422 267.781ZM337.719 275.266V286.766C337.719 287.661 337.781 288.26 337.906 288.562C338.042 288.854 338.234 289.073 338.484 289.219C338.745 289.365 339.214 289.438 339.891 289.438V290H332.938V289.438C333.635 289.438 334.104 289.37 334.344 289.234C334.583 289.099 334.771 288.875 334.906 288.562C335.052 288.25 335.125 287.651 335.125 286.766V281.25C335.125 279.698 335.078 278.693 334.984 278.234C334.911 277.901 334.797 277.672 334.641 277.547C334.484 277.411 334.271 277.344 334 277.344C333.708 277.344 333.354 277.422 332.938 277.578L332.719 277.016L337.031 275.266H337.719ZM345.859 278.297C347.536 276.276 349.135 275.266 350.656 275.266C351.438 275.266 352.109 275.464 352.672 275.859C353.234 276.245 353.682 276.885 354.016 277.781C354.245 278.406 354.359 279.365 354.359 280.656V286.766C354.359 287.672 354.432 288.286 354.578 288.609C354.693 288.87 354.875 289.073 355.125 289.219C355.385 289.365 355.859 289.438 356.547 289.438V290H349.469V289.438H349.766C350.432 289.438 350.896 289.339 351.156 289.141C351.427 288.932 351.615 288.63 351.719 288.234C351.76 288.078 351.781 287.589 351.781 286.766V280.906C351.781 279.604 351.609 278.661 351.266 278.078C350.932 277.484 350.365 277.188 349.562 277.188C348.323 277.188 347.089 277.865 345.859 279.219V286.766C345.859 287.734 345.917 288.333 346.031 288.562C346.177 288.865 346.375 289.089 346.625 289.234C346.885 289.37 347.406 289.438 348.188 289.438V290H341.109V289.438H341.422C342.151 289.438 342.641 289.255 342.891 288.891C343.151 288.516 343.281 287.807 343.281 286.766V281.453C343.281 279.734 343.24 278.688 343.156 278.312C343.083 277.938 342.964 277.682 342.797 277.547C342.641 277.411 342.427 277.344 342.156 277.344C341.865 277.344 341.516 277.422 341.109 277.578L340.875 277.016L345.188 275.266H345.859V278.297ZM360.094 281.078C360.083 283.203 360.599 284.87 361.641 286.078C362.682 287.286 363.906 287.891 365.312 287.891C366.25 287.891 367.062 287.635 367.75 287.125C368.448 286.604 369.031 285.719 369.5 284.469L369.984 284.781C369.766 286.208 369.13 287.51 368.078 288.688C367.026 289.854 365.708 290.438 364.125 290.438C362.406 290.438 360.932 289.771 359.703 288.438C358.484 287.094 357.875 285.292 357.875 283.031C357.875 280.583 358.5 278.677 359.75 277.312C361.01 275.938 362.589 275.25 364.484 275.25C366.089 275.25 367.406 275.781 368.438 276.844C369.469 277.896 369.984 279.307 369.984 281.078H360.094ZM360.094 280.172H366.719C366.667 279.255 366.557 278.609 366.391 278.234C366.13 277.651 365.74 277.193 365.219 276.859C364.708 276.526 364.172 276.359 363.609 276.359C362.745 276.359 361.969 276.698 361.281 277.375C360.604 278.042 360.208 278.974 360.094 280.172ZM397.422 268.812L397.656 273.781H397.062C396.948 272.906 396.792 272.281 396.594 271.906C396.271 271.302 395.839 270.859 395.297 270.578C394.766 270.286 394.062 270.141 393.188 270.141H390.203V286.328C390.203 287.63 390.344 288.443 390.625 288.766C391.021 289.203 391.63 289.422 392.453 289.422H393.188V290H384.203V289.422H384.953C385.849 289.422 386.484 289.151 386.859 288.609C387.089 288.276 387.203 287.516 387.203 286.328V270.141H384.656C383.667 270.141 382.964 270.214 382.547 270.359C382.005 270.557 381.542 270.938 381.156 271.5C380.771 272.062 380.542 272.823 380.469 273.781H379.875L380.125 268.812H397.422ZM403.656 275.266V278.484C404.854 276.339 406.083 275.266 407.344 275.266C407.917 275.266 408.391 275.443 408.766 275.797C409.141 276.141 409.328 276.542 409.328 277C409.328 277.406 409.193 277.75 408.922 278.031C408.651 278.312 408.328 278.453 407.953 278.453C407.589 278.453 407.177 278.276 406.719 277.922C406.271 277.557 405.938 277.375 405.719 277.375C405.531 277.375 405.328 277.479 405.109 277.688C404.641 278.115 404.156 278.818 403.656 279.797V286.656C403.656 287.448 403.755 288.047 403.953 288.453C404.089 288.734 404.328 288.969 404.672 289.156C405.016 289.344 405.51 289.438 406.156 289.438V290H398.828V289.438C399.557 289.438 400.099 289.323 400.453 289.094C400.714 288.927 400.896 288.661 401 288.297C401.052 288.12 401.078 287.615 401.078 286.781V281.234C401.078 279.568 401.042 278.578 400.969 278.266C400.906 277.943 400.781 277.708 400.594 277.562C400.417 277.417 400.193 277.344 399.922 277.344C399.599 277.344 399.234 277.422 398.828 277.578L398.672 277.016L403 275.266H403.656ZM418.234 287.938C416.766 289.073 415.844 289.729 415.469 289.906C414.906 290.167 414.307 290.297 413.672 290.297C412.682 290.297 411.865 289.958 411.219 289.281C410.583 288.604 410.266 287.714 410.266 286.609C410.266 285.911 410.422 285.307 410.734 284.797C411.161 284.089 411.901 283.422 412.953 282.797C414.016 282.172 415.776 281.411 418.234 280.516V279.953C418.234 278.526 418.005 277.547 417.547 277.016C417.099 276.484 416.443 276.219 415.578 276.219C414.922 276.219 414.401 276.396 414.016 276.75C413.62 277.104 413.422 277.51 413.422 277.969L413.453 278.875C413.453 279.354 413.328 279.724 413.078 279.984C412.839 280.245 412.521 280.375 412.125 280.375C411.74 280.375 411.422 280.24 411.172 279.969C410.932 279.698 410.812 279.328 410.812 278.859C410.812 277.964 411.271 277.141 412.188 276.391C413.104 275.641 414.391 275.266 416.047 275.266C417.318 275.266 418.359 275.479 419.172 275.906C419.786 276.229 420.24 276.734 420.531 277.422C420.719 277.87 420.812 278.786 420.812 280.172V285.031C420.812 286.396 420.839 287.234 420.891 287.547C420.943 287.849 421.026 288.052 421.141 288.156C421.266 288.26 421.406 288.312 421.562 288.312C421.729 288.312 421.875 288.276 422 288.203C422.219 288.068 422.641 287.688 423.266 287.062V287.938C422.099 289.5 420.984 290.281 419.922 290.281C419.411 290.281 419.005 290.104 418.703 289.75C418.401 289.396 418.245 288.792 418.234 287.938ZM418.234 286.922V281.469C416.661 282.094 415.646 282.536 415.188 282.797C414.365 283.255 413.776 283.734 413.422 284.234C413.068 284.734 412.891 285.281 412.891 285.875C412.891 286.625 413.115 287.25 413.562 287.75C414.01 288.24 414.526 288.484 415.109 288.484C415.901 288.484 416.943 287.964 418.234 286.922ZM428.516 278.297C430.193 276.276 431.792 275.266 433.312 275.266C434.094 275.266 434.766 275.464 435.328 275.859C435.891 276.245 436.339 276.885 436.672 277.781C436.901 278.406 437.016 279.365 437.016 280.656V286.766C437.016 287.672 437.089 288.286 437.234 288.609C437.349 288.87 437.531 289.073 437.781 289.219C438.042 289.365 438.516 289.438 439.203 289.438V290H432.125V289.438H432.422C433.089 289.438 433.552 289.339 433.812 289.141C434.083 288.932 434.271 288.63 434.375 288.234C434.417 288.078 434.438 287.589 434.438 286.766V280.906C434.438 279.604 434.266 278.661 433.922 278.078C433.589 277.484 433.021 277.188 432.219 277.188C430.979 277.188 429.745 277.865 428.516 279.219V286.766C428.516 287.734 428.573 288.333 428.688 288.562C428.833 288.865 429.031 289.089 429.281 289.234C429.542 289.37 430.062 289.438 430.844 289.438V290H423.766V289.438H424.078C424.807 289.438 425.297 289.255 425.547 288.891C425.807 288.516 425.938 287.807 425.938 286.766V281.453C425.938 279.734 425.896 278.688 425.812 278.312C425.74 277.938 425.62 277.682 425.453 277.547C425.297 277.411 425.083 277.344 424.812 277.344C424.521 277.344 424.172 277.422 423.766 277.578L423.531 277.016L427.844 275.266H428.516V278.297ZM449.594 275.266V280.141H449.078C448.682 278.609 448.172 277.568 447.547 277.016C446.932 276.464 446.146 276.188 445.188 276.188C444.458 276.188 443.87 276.38 443.422 276.766C442.974 277.151 442.75 277.578 442.75 278.047C442.75 278.63 442.917 279.13 443.25 279.547C443.573 279.974 444.229 280.427 445.219 280.906L447.5 282.016C449.615 283.047 450.672 284.406 450.672 286.094C450.672 287.396 450.177 288.448 449.188 289.25C448.208 290.042 447.109 290.438 445.891 290.438C445.016 290.438 444.016 290.281 442.891 289.969C442.547 289.865 442.266 289.812 442.047 289.812C441.807 289.812 441.62 289.948 441.484 290.219H440.969V285.109H441.484C441.776 286.568 442.333 287.667 443.156 288.406C443.979 289.146 444.901 289.516 445.922 289.516C446.641 289.516 447.224 289.307 447.672 288.891C448.13 288.464 448.359 287.953 448.359 287.359C448.359 286.641 448.104 286.036 447.594 285.547C447.094 285.057 446.089 284.438 444.578 283.688C443.068 282.938 442.078 282.26 441.609 281.656C441.141 281.062 440.906 280.312 440.906 279.406C440.906 278.229 441.307 277.245 442.109 276.453C442.922 275.661 443.969 275.266 445.25 275.266C445.812 275.266 446.495 275.385 447.297 275.625C447.828 275.781 448.182 275.859 448.359 275.859C448.526 275.859 448.656 275.823 448.75 275.75C448.844 275.677 448.953 275.516 449.078 275.266H449.594ZM451.781 277.109L456.188 275.328H456.781V278.672C457.521 277.411 458.26 276.531 459 276.031C459.75 275.521 460.536 275.266 461.359 275.266C462.797 275.266 463.995 275.828 464.953 276.953C466.13 278.328 466.719 280.12 466.719 282.328C466.719 284.797 466.01 286.839 464.594 288.453C463.427 289.776 461.958 290.438 460.188 290.438C459.417 290.438 458.75 290.328 458.188 290.109C457.771 289.953 457.302 289.641 456.781 289.172V293.531C456.781 294.51 456.839 295.13 456.953 295.391C457.078 295.661 457.286 295.875 457.578 296.031C457.88 296.188 458.422 296.266 459.203 296.266V296.844H451.703V296.266H452.094C452.667 296.276 453.156 296.167 453.562 295.938C453.76 295.823 453.911 295.635 454.016 295.375C454.13 295.125 454.188 294.479 454.188 293.438V279.906C454.188 278.979 454.146 278.391 454.062 278.141C453.979 277.891 453.844 277.703 453.656 277.578C453.479 277.453 453.234 277.391 452.922 277.391C452.672 277.391 452.354 277.464 451.969 277.609L451.781 277.109ZM456.781 279.594V284.938C456.781 286.094 456.828 286.854 456.922 287.219C457.068 287.823 457.422 288.354 457.984 288.812C458.557 289.271 459.276 289.5 460.141 289.5C461.182 289.5 462.026 289.094 462.672 288.281C463.516 287.219 463.938 285.724 463.938 283.797C463.938 281.609 463.458 279.927 462.5 278.75C461.833 277.938 461.042 277.531 460.125 277.531C459.625 277.531 459.13 277.656 458.641 277.906C458.266 278.094 457.646 278.656 456.781 279.594ZM475.812 275.266C477.979 275.266 479.719 276.089 481.031 277.734C482.146 279.141 482.703 280.755 482.703 282.578C482.703 283.859 482.396 285.156 481.781 286.469C481.167 287.781 480.318 288.771 479.234 289.438C478.161 290.104 476.964 290.438 475.641 290.438C473.484 290.438 471.771 289.578 470.5 287.859C469.427 286.411 468.891 284.786 468.891 282.984C468.891 281.672 469.214 280.37 469.859 279.078C470.516 277.776 471.375 276.818 472.438 276.203C473.5 275.578 474.625 275.266 475.812 275.266ZM475.328 276.281C474.776 276.281 474.219 276.448 473.656 276.781C473.104 277.104 472.656 277.677 472.312 278.5C471.969 279.323 471.797 280.38 471.797 281.672C471.797 283.755 472.208 285.552 473.031 287.062C473.865 288.573 474.958 289.328 476.312 289.328C477.323 289.328 478.156 288.911 478.812 288.078C479.469 287.245 479.797 285.812 479.797 283.781C479.797 281.24 479.25 279.24 478.156 277.781C477.417 276.781 476.474 276.281 475.328 276.281ZM489 275.266V278.484C490.198 276.339 491.427 275.266 492.688 275.266C493.26 275.266 493.734 275.443 494.109 275.797C494.484 276.141 494.672 276.542 494.672 277C494.672 277.406 494.536 277.75 494.266 278.031C493.995 278.312 493.672 278.453 493.297 278.453C492.932 278.453 492.521 278.276 492.062 277.922C491.615 277.557 491.281 277.375 491.062 277.375C490.875 277.375 490.672 277.479 490.453 277.688C489.984 278.115 489.5 278.818 489 279.797V286.656C489 287.448 489.099 288.047 489.297 288.453C489.432 288.734 489.672 288.969 490.016 289.156C490.359 289.344 490.854 289.438 491.5 289.438V290H484.172V289.438C484.901 289.438 485.443 289.323 485.797 289.094C486.057 288.927 486.24 288.661 486.344 288.297C486.396 288.12 486.422 287.615 486.422 286.781V281.234C486.422 279.568 486.385 278.578 486.312 278.266C486.25 277.943 486.125 277.708 485.938 277.562C485.76 277.417 485.536 277.344 485.266 277.344C484.943 277.344 484.578 277.422 484.172 277.578L484.016 277.016L488.344 275.266H489ZM499.625 270.984V275.688H502.969V276.781H499.625V286.062C499.625 286.99 499.755 287.615 500.016 287.938C500.286 288.26 500.63 288.422 501.047 288.422C501.391 288.422 501.724 288.318 502.047 288.109C502.37 287.891 502.62 287.573 502.797 287.156H503.406C503.042 288.177 502.526 288.948 501.859 289.469C501.193 289.979 500.505 290.234 499.797 290.234C499.318 290.234 498.849 290.104 498.391 289.844C497.932 289.573 497.594 289.193 497.375 288.703C497.156 288.203 497.047 287.438 497.047 286.406V276.781H494.781V276.266C495.354 276.036 495.938 275.651 496.531 275.109C497.135 274.557 497.672 273.906 498.141 273.156C498.38 272.76 498.714 272.036 499.141 270.984H499.625Z" fill="#F5F5F5" fill-opacity="0.3"/>
<path d="M731.614 24.2614C673.955 28.0294 606.773 44.6139 552.058 63.6126C523.243 73.6436 497.878 84.2697 479.155 93.968C469.787 98.869 462.078 103.486 456.489 107.54C450.897 111.647 447.534 115.359 446.607 117.381C439.998 131.892 442.627 147.312 445.022 161.664C449.454 188.452 440.176 207.885 426.537 226.386C442.638 224.707 455.775 218.382 463.976 204.787C469.945 194.89 470.904 185.95 473.006 175.319C475.107 164.688 478.471 152.587 489.473 138.276L489.612 138.077L489.751 137.879C495.7 131.756 506.979 127.64 522.345 123.017C537.649 118.389 556.882 113.766 577.702 109.115C618.698 99.9695 665.784 90.7431 699.867 81.6649C713.434 66.9854 723.659 44.6723 731.614 24.2614ZM692.555 93.5497C659.28 101.855 617.644 110.056 581.082 118.199C560.392 122.808 541.351 127.394 526.628 131.86C512.034 136.283 501.66 141.155 498.897 143.866C494.219 149.935 491.162 155.402 489.014 160.523C541.827 161.411 613.211 153.951 662.25 139.692C680.472 125.601 687.412 110.435 692.555 93.5497ZM652.216 152.562C601.367 165.31 535.729 171.035 485.856 169.757C485.13 172.32 484.6 174.794 484.133 177.273C483.77 179.078 483.467 180.941 483.104 182.747C528.536 190.375 568.954 191.827 613.378 189.935C634.652 179.867 646.358 166.61 652.216 152.562ZM599.66 199.778C560.106 200.808 522.634 198.861 481.217 191.927C480.633 194.239 479.924 196.541 479.084 198.885C501.123 210.745 540.149 217.38 567.059 218.939C586.5 214.019 594.02 208.128 599.66 199.778ZM475.053 207.681C474.261 208.717 472.86 211.015 472.116 212.108C480.328 223.368 501.837 231.41 526.655 237.151C540.28 234.065 544.996 230.516 550.405 227.023C525.398 224.412 495.959 218.557 475.065 207.682L475.053 207.681Z" fill="#F6FBF2" fill-opacity="0.3"/>
<path d="M0.380548 24.2614C58.0394 28.0294 125.222 44.6139 179.936 63.6126C208.752 73.6436 234.117 84.2697 252.84 93.968C262.208 98.869 269.916 103.486 275.506 107.54C281.098 111.647 284.46 115.359 285.388 117.381C291.997 131.892 289.368 147.312 286.972 161.664C282.541 188.452 291.818 207.885 305.458 226.386C289.357 224.707 276.22 218.382 268.018 204.787C262.05 194.89 261.09 185.95 258.989 175.319C256.887 164.688 253.524 152.587 242.521 138.276L242.383 138.077L242.244 137.879C236.295 131.756 225.016 127.64 209.649 123.017C194.346 118.389 175.113 113.766 154.293 109.115C113.297 99.9695 66.2103 90.7431 32.1277 81.6649C18.5611 66.9854 8.33562 44.6723 0.380548 24.2614ZM39.4398 93.5497C72.7149 101.855 114.351 110.056 150.913 118.199C171.603 122.808 190.644 127.394 205.367 131.86C219.961 136.283 230.335 141.155 233.098 143.866C237.776 149.935 240.833 155.402 242.981 160.523C190.168 161.411 118.784 153.951 69.7445 139.692C51.5226 125.601 44.5824 110.435 39.4398 93.5497ZM79.7785 152.562C130.628 165.31 196.266 171.035 246.139 169.757C246.865 172.32 247.395 174.794 247.862 177.273C248.225 179.078 248.528 180.941 248.891 182.747C203.458 190.375 163.041 191.827 118.617 189.935C97.3425 179.867 85.6368 166.61 79.7785 152.562ZM132.334 199.778C171.888 200.808 209.36 198.861 250.778 191.927C251.361 194.239 252.071 196.541 252.91 198.885C230.872 210.745 191.845 217.38 164.936 218.939C145.494 214.019 137.975 208.128 132.334 199.778ZM256.942 207.681C257.734 208.717 259.134 211.015 259.879 212.108C251.667 223.368 230.158 231.41 205.34 237.151C191.714 234.065 186.999 230.516 181.589 227.023C206.597 224.412 236.035 218.557 256.929 207.682L256.942 207.681Z" fill="#F6FBF2" fill-opacity="0.3"/>
<path d="M439.986 170.607C439.986 211.336 406.874 244.358 366.023 244.358C325.172 244.358 292.06 211.336 292.06 170.607C292.06 129.878 325.172 96.856 366.023 96.856C406.874 96.856 439.986 129.878 439.986 170.607Z" stroke="#EFEFEF" stroke-opacity="0.3" stroke-width="2"/>
<path d="M432.011 171.128C432.011 207.455 402.572 236.904 366.259 236.904C329.945 236.904 300.506 207.455 300.506 171.128C300.506 134.8 329.945 105.352 366.259 105.352C402.572 105.352 432.011 134.8 432.011 171.128Z" stroke="#F5F5F5" stroke-opacity="0.3" stroke-width="3"/>
<path d="M423.352 171.109C423.352 201.925 397.697 226.929 366.023 226.929C334.349 226.929 308.694 201.925 308.694 171.109C308.694 140.293 334.349 115.289 366.023 115.289C397.697 115.289 423.352 140.293 423.352 171.109Z" stroke="#EFEFEF" stroke-opacity="0.3"/>
</g>
</svg>
