<svg width="45" height="45" viewBox="0 0 45 45" fill="none" xmlns="http://www.w3.org/2000/svg">
<path d="M44.9962 22.4972V22.4859C44.9962 15.8281 42.0977 9.84899 37.495 5.73729L37.4725 5.71854C37.4156 5.6573 37.3521 5.60259 37.2831 5.55542L37.2794 5.55355C33.1912 1.96452 27.9343 -0.0100455 22.4944 3.84333e-05C16.8099 3.84333e-05 11.6203 2.1112 7.66436 5.5948L7.68874 5.57417C7.6412 5.61051 7.59726 5.65132 7.5575 5.69604C5.17941 7.80201 3.27588 10.3911 1.97299 13.2882C0.670102 16.1853 -0.00240615 19.3262 6.46846e-06 22.5028C6.46846e-06 29.1588 2.89476 35.1379 7.49375 39.2515L7.51625 39.2702C7.57608 39.3375 7.64268 39.3984 7.71499 39.4521L7.71874 39.454C11.8056 43.0381 17.0586 45.0098 22.4944 45C27.9555 45.0084 33.2311 43.0184 37.3263 39.4052L37.3019 39.4258C39.7213 37.3223 41.6607 34.7236 42.9888 31.8055C44.3169 28.8875 45.0028 25.7183 45 22.5122V22.4991L44.9962 22.4972ZM36.6307 37.1309C35.5158 36.23 34.3173 35.4377 33.0516 34.7648L32.9298 34.7048C34.079 31.3918 34.7708 27.5726 34.8365 23.5996V23.5696H42.8252C42.5565 28.7097 40.3442 33.5555 36.6363 37.1253L36.6307 37.1309ZM23.5705 34.3092C25.976 34.4385 28.2239 34.9673 30.2975 35.8279L30.1625 35.7791C28.5014 39.5664 26.1634 42.1688 23.5705 42.7407V34.3092ZM23.5705 32.1643V23.5696H32.6973C32.6247 27.1287 32.0076 30.6557 30.8674 34.0279L30.9405 33.7823C28.6133 32.8242 26.1373 32.2774 23.623 32.1661L23.5724 32.1643H23.5705ZM23.5705 21.4247V12.8301C26.1526 12.7126 28.6945 12.1474 31.083 11.1596L30.9349 11.2139C31.9755 14.2494 32.6148 17.748 32.6973 21.3854V21.4247H23.5705ZM23.5705 10.6852V2.25744C26.1634 2.82929 28.5014 5.42043 30.1625 9.21901C28.2239 10.0252 25.976 10.5521 23.6249 10.6833L23.5705 10.6852ZM28.9213 3.18553C31.1312 3.92102 33.1976 5.03227 35.0296 6.47038L34.9865 6.43663C34.1559 7.08911 33.2241 7.70408 32.2417 8.23843L32.1367 8.29093C31.3449 6.4163 30.2532 4.68307 28.9045 3.15928L28.9213 3.1799V3.18553ZM21.422 2.26307V10.6852C19.1093 10.5674 16.834 10.0537 14.695 9.16652L14.83 9.21526C16.4986 5.42793 18.8328 2.82742 21.4257 2.25557L21.422 2.26307ZM12.8577 8.2853C11.8416 7.73806 10.8733 7.1065 9.96292 6.39726L10.0079 6.43101C11.7865 5.03503 13.7883 3.94979 15.9287 3.22115L16.0712 3.17803C14.759 4.66152 13.6903 6.34355 12.9046 8.16156L12.8577 8.2853ZM21.4257 12.8282V21.4229H12.299C12.3815 17.7461 13.0208 14.2475 14.1344 10.9664L14.0613 11.2121C16.3887 12.1655 18.8627 12.7115 21.3751 12.8264L21.4257 12.8282ZM21.4257 23.5678V32.1624C18.8437 32.2799 16.3017 32.8451 13.9132 33.8329L14.0613 33.7786C13.0208 30.745 12.3815 27.2445 12.299 23.6071V23.5678H21.4257ZM21.4257 34.3073V42.7351C18.8328 42.1632 16.4949 39.5721 14.8338 35.7735C16.7724 34.9673 19.0203 34.4423 21.3713 34.3111L21.4257 34.3073ZM16.0824 41.807C13.8746 41.0703 11.8088 39.962 9.97417 38.5296L10.0192 38.5634C10.8497 37.9109 11.7815 37.2959 12.7639 36.7616L12.8689 36.7091C13.6548 38.5841 14.7464 40.3157 16.0993 41.8332L16.0824 41.8145V41.807ZM32.1386 36.7072C33.226 37.2978 34.1578 37.9109 35.0333 38.5952L34.9883 38.5615C33.2097 39.9575 31.2079 41.0427 29.0676 41.7714L28.9251 41.8145C30.237 40.3315 31.3058 38.6502 32.0917 36.8328L32.1386 36.7109V36.7072ZM42.8252 21.4247H34.8365C34.7778 17.5455 34.1084 13.6998 32.8529 10.029L32.9298 10.2877C34.254 9.59019 35.5079 8.76641 36.6738 7.82782L36.6288 7.86157C40.3304 11.4169 42.5438 16.2453 42.8214 21.3704L42.8252 21.4247ZM8.36556 7.86345C9.44547 8.74091 10.6585 9.54525 11.9446 10.2296L12.0665 10.2896C10.9172 13.6026 10.2254 17.4218 10.1598 21.3947V21.4247H2.1692C2.43786 16.2847 4.65021 11.4389 8.35806 7.86907L8.36556 7.86345ZM2.17107 23.5696H10.1598C10.2184 27.4488 10.8878 31.2946 12.1434 34.9654L12.0665 34.7067C10.6585 35.4547 9.44734 36.2591 8.32244 37.1665L8.36743 37.1328C4.66585 33.5775 2.45245 28.7491 2.17482 23.624L2.17295 23.5715L2.17107 23.5696Z" fill="#1A1A1A"/>
</svg>
