<svg width="54" height="54" viewBox="0 0 54 54" fill="none" xmlns="http://www.w3.org/2000/svg">
<path d="M26.9325 44.73C25.8104 45.1372 24.5728 45.0842 23.4896 44.5826C22.4064 44.0811 21.5654 43.1716 21.15 42.0525C20.9394 41.4991 20.8418 40.9092 20.8629 40.3175C20.8841 39.7258 21.0236 39.1443 21.2732 38.6074C21.5227 38.0705 21.8773 37.5891 22.3161 37.1915C22.7548 36.7939 23.2687 36.4882 23.8275 36.2925C26.1675 35.4375 28.755 36.63 29.61 38.9475C30.0172 40.0696 29.9642 41.3072 29.4626 42.3904C28.9611 43.4736 28.0516 44.3146 26.9325 44.73ZM22.275 32.0625C17.6175 33.75 15.21 38.925 16.875 43.605C17.7211 45.8412 19.4136 47.6545 21.5863 48.6524C23.7591 49.6504 26.2373 49.7528 28.485 48.9375C33.1425 47.25 35.5275 42.075 33.84 37.4175C32.13 32.7375 26.9325 30.375 22.275 32.0625ZM35.865 10.305L21.0825 15.75L24.1875 24.165L38.97 18.7425M45.72 30.645L34.965 34.5825C35.3475 35.235 35.6625 35.91 35.9325 36.63C36.2025 37.35 36.3825 38.0925 36.495 38.8125L47.25 34.875M43.965 19.305L24.9525 26.28L26.055 29.25C28.8675 29.4525 31.5 30.69 33.5025 32.7375L47.07 27.765M4.5 4.5V9H11.4525L19.485 30.9375C20.7677 30.1401 22.1992 29.6119 23.6925 29.385L14.625 4.5" fill="black"/>
</svg>
