<svg width="39" height="39" viewBox="0 0 39 39" fill="none" xmlns="http://www.w3.org/2000/svg">
<path d="M28.25 2H10.75C5.91751 2 2 5.91751 2 10.75V28.25C2 33.0825 5.91751 37 10.75 37H28.25C33.0825 37 37 33.0825 37 28.25V10.75C37 5.91751 33.0825 2 28.25 2Z" stroke="#FBFBFB" stroke-width="3" stroke-linecap="round" stroke-linejoin="round"/>
<path d="M29.125 9.875H29.1425M26.5 18.3975C26.7159 19.8539 26.4672 21.3414 25.7891 22.6483C25.1109 23.9552 24.038 25.015 22.7228 25.6769C21.4077 26.3389 19.9173 26.5693 18.4636 26.3354C17.0099 26.1015 15.6671 25.4151 14.6259 24.374C13.5848 23.3329 12.8985 21.99 12.6646 20.5364C12.4307 19.0827 12.6611 17.5923 13.323 16.2772C13.985 14.962 15.0448 13.889 16.3517 13.2109C17.6586 12.5328 19.146 12.284 20.6025 12.5C22.0881 12.7203 23.4635 13.4126 24.5254 14.4745C25.5874 15.5365 26.2797 16.9119 26.5 18.3975Z" stroke="#FBFBFB" stroke-width="3" stroke-linecap="round" stroke-linejoin="round"/>
</svg>
