<svg width="25" height="25" viewBox="0 0 25 25" fill="none" xmlns="http://www.w3.org/2000/svg">
<g clip-path="url(#clip0_2154_692)">
<path d="M12.2221 16.8888L10.5137 18.5832C9.99389 19.0964 9.29282 19.3841 8.56236 19.3841C7.83189 19.3841 7.13083 19.0964 6.61097 18.5832C6.35753 18.3304 6.15646 18.03 6.01927 17.6993C5.88208 17.3686 5.81146 17.0141 5.81146 16.6561C5.81146 16.2981 5.88208 15.9436 6.01927 15.613C6.15646 15.2823 6.35753 14.9819 6.61097 14.7291L9.86791 11.4999C10.3878 10.9867 11.0888 10.699 11.8193 10.699C12.5498 10.699 13.2508 10.9867 13.7707 11.4999C14.1015 11.8286 14.3409 12.2379 14.4651 12.6874C14.5335 12.631 14.5963 12.5682 14.6526 12.4999L15.5485 11.611C15.3478 11.1936 15.0777 10.8132 14.7499 10.486C13.9698 9.71417 12.9167 9.28125 11.8193 9.28125C10.7219 9.28125 9.66883 9.71417 8.88875 10.486L5.62486 13.7429C5.24041 14.1245 4.93528 14.5783 4.72705 15.0783C4.51882 15.5783 4.41162 16.1145 4.41162 16.6561C4.41162 17.1978 4.51882 17.734 4.72705 18.234C4.93528 18.734 5.24041 19.1878 5.62486 19.5693C6.40495 20.3412 7.45803 20.7741 8.55541 20.7741C9.6528 20.7741 10.7059 20.3412 11.486 19.5693L14.0207 17.0554H13.6735C13.1844 17.064 12.6964 17.008 12.2221 16.8888Z" fill="#1A1A1A "/>
<path d="M19.8681 5.43034C19.088 4.65851 18.0349 4.22559 16.9375 4.22559C15.8401 4.22559 14.787 4.65851 14.0069 5.43034L11.4722 7.94422H11.8125C12.3051 7.9441 12.7955 8.00949 13.2708 8.13867L14.9792 6.44422C15.499 5.93107 16.2001 5.64335 16.9306 5.64335C17.661 5.64335 18.3621 5.93107 18.8819 6.44422C19.1354 6.69709 19.3365 6.99745 19.4736 7.32813C19.6108 7.65881 19.6814 8.0133 19.6814 8.37131C19.6814 8.72931 19.6108 9.0838 19.4736 9.41448C19.3365 9.74516 19.1354 10.0455 18.8819 10.2984L15.625 13.5276C15.1051 14.0407 14.4041 14.3284 13.6736 14.3284C12.9431 14.3284 12.2421 14.0407 11.7222 13.5276C11.3914 13.1989 11.152 12.7896 11.0278 12.3401C10.9583 12.3873 10.8932 12.4408 10.8333 12.4998L9.9375 13.3887C10.1382 13.8061 10.4082 14.1865 10.7361 14.5137C11.5162 15.2855 12.5693 15.7184 13.6667 15.7184C14.7641 15.7184 15.8171 15.2855 16.5972 14.5137L19.8542 11.2845C20.2378 10.9025 20.5422 10.4485 20.7499 9.94862C20.9576 9.44869 21.0645 8.91266 21.0645 8.37131C21.0645 7.82995 20.9576 7.29393 20.7499 6.794C20.5422 6.29407 20.2378 5.84009 19.8542 5.45811L19.8681 5.43034Z" fill="#1A1A1A "/>
</g>
<defs>
<clipPath id="clip0_2154_692">
<rect width="25" height="25" fill="#F5F5F5"/>
</clipPath>
</defs>
</svg>
