<svg width="39" height="39" viewBox="0 0 39 39" fill="none" xmlns="http://www.w3.org/2000/svg">
<path fill-rule="evenodd" clip-rule="evenodd" d="M5.47143 0C4.02032 0 2.62864 0.576452 1.60254 1.60254C0.576452 2.62864 0 4.02032 0 5.47143V32.8286C0 34.2797 0.576452 35.6714 1.60254 36.6975C2.62864 37.7235 4.02032 38.3 5.47143 38.3H32.8286C34.2797 38.3 35.6714 37.7235 36.6975 36.6975C37.7235 35.6714 38.3 34.2797 38.3 32.8286V5.47143C38.3 4.02032 37.7235 2.62864 36.6975 1.60254C35.6714 0.576452 34.2797 0 32.8286 0H5.47143ZM8.48619 11.7554C9.35323 11.7554 10.1848 11.4109 10.7978 10.7978C11.4109 10.1848 11.7554 9.35323 11.7554 8.48619C11.7554 7.61915 11.4109 6.78762 10.7978 6.17453C10.1848 5.56144 9.35323 5.21701 8.48619 5.21701C7.61915 5.21701 6.78762 5.56144 6.17453 6.17453C5.56144 6.78762 5.21701 7.61915 5.21701 8.48619C5.21701 9.35323 5.56144 10.1848 6.17453 10.7978C6.78762 11.4109 7.61915 11.7554 8.48619 11.7554ZM11.2219 32.317V14.3187H5.75047V32.317H11.2219ZM14.8549 14.3187H20.3264V16.7289C21.1334 15.465 22.9061 13.7634 26.2027 13.7634C30.1366 13.7634 32.2732 16.3705 32.2732 21.3304C32.2732 21.5684 32.2951 22.6544 32.2951 22.6544V32.3143H26.8237V22.6572C26.8237 21.3304 26.5446 18.7232 23.5955 18.7232C20.6437 18.7232 20.3948 22.0006 20.3264 24.1454V32.3143H14.8549V14.3187Z" fill="#F5F5F5"/>
</svg>
