<svg width="45" height="45" viewBox="0 0 45 45" fill="none" xmlns="http://www.w3.org/2000/svg">
<path d="M12.6399 45C19.6002 45 25.2551 40.4253 25.2551 34.7955C25.2551 31.8246 23.7331 29.2241 20.8572 27.1139C20.3251 26.7219 20.2045 26.5076 20.2045 25.9212L20.2282 20.1347L27.6484 16.5966L27.5762 23.3607L23.4907 25.2757C22.8143 25.5885 22.5246 26.1356 22.8875 26.6836C23.2495 27.1723 23.9991 27.2699 24.6271 26.9963L27.5514 25.6277L27.5277 28.6386C27.5277 29.3025 28.0103 29.8112 28.8321 29.8112C29.654 29.8112 30.1623 29.2833 30.1623 28.6377L30.1128 25.6468L33.0135 26.9963C33.6425 27.2891 34.3911 27.1715 34.7293 26.6836C35.116 26.1356 34.8262 25.6076 34.1488 25.2757L30.0891 23.3599L30.0406 16.5958L37.1938 19.9979V23.8094C37.1938 24.4158 37.6537 24.8854 38.4023 24.9045C39.1035 24.9045 39.5871 24.4158 39.5871 23.8687L39.6108 21.1513L42.8486 22.676C43.5745 23.0279 44.3954 22.9304 44.8078 22.3824C45.2182 21.8152 44.9037 21.1897 44.1788 20.8578L40.8678 19.3532L43.7921 17.9845C44.4211 17.6909 44.6624 17.1046 44.3242 16.6167C43.9612 16.0879 43.2116 15.9911 42.5351 16.3231L38.427 18.2189L31.2492 14.916L38.4992 11.5924L42.6073 13.5082C43.2601 13.8009 43.985 13.7234 44.3964 13.1954C44.7346 12.7067 44.4686 12.1195 43.8643 11.8468L40.94 10.4581L44.2025 8.97348C44.9522 8.63986 45.2182 8.03434 44.8068 7.44801C44.4201 6.90088 43.5983 6.78328 42.9466 7.09604L39.6593 8.65988V5.96258C39.6593 5.35623 39.1756 4.90668 38.4755 4.90668C37.7021 4.90668 37.267 5.35706 37.267 6.02096L37.2422 9.81336L30.0406 13.2346L30.0891 6.43131L34.1725 4.51635C34.8499 4.18356 35.116 3.63643 34.753 3.10848C34.4148 2.61973 33.6662 2.50213 33.0372 2.79571L30.1128 4.14436L30.1613 1.19268C30.1613 0.52795 29.654 0 28.8321 0C28.035 0 27.5277 0.52795 27.5277 1.19268L27.5514 4.1452L24.6508 2.79571C23.9991 2.50213 23.2732 2.62057 22.9112 3.10848C22.5483 3.63643 22.8143 4.1844 23.4907 4.51635L27.5752 6.43131L27.6473 13.2346L20.2529 9.69576V8.36713C20.2529 4.28115 17.1832 1.56383 12.6399 1.56383C8.07188 1.56383 5.00316 4.28115 5.00316 8.36713L5.02688 25.9212C5.02688 26.5076 4.90624 26.7219 4.39788 27.1139C1.49827 29.2241 0 31.8246 0 34.7955C0 40.4253 5.63114 45 12.6399 45ZM12.6399 42.1651C7.61302 42.1651 3.52861 38.8423 3.52861 34.7955C3.52861 32.3517 4.9547 30.1432 7.51609 28.7553C8.26574 28.345 8.55549 27.9738 8.55549 27.1723V8.48389C8.55549 5.92338 10.2229 4.28115 12.6389 4.28115C15.0322 4.28115 16.6758 5.92338 16.6758 8.48473V27.1723C16.6758 27.973 16.9656 28.345 17.7152 28.7553C20.2766 30.1432 21.7027 32.3526 21.7027 34.7955C21.7027 38.8423 17.6431 42.1651 12.6389 42.1651M26.4388 14.9152L20.2271 17.7301V12.0811L26.4388 14.9152ZM12.6152 39.5262C13.3854 39.5267 14.1482 39.4041 14.8597 39.1654C15.5711 38.9266 16.2172 38.5765 16.7607 38.135C17.3043 37.6936 17.7346 37.1696 18.0269 36.5932C18.3192 36.0168 18.4677 35.3993 18.4639 34.7763C18.4639 32.9389 17.1832 31.4334 15.3219 30.6127C14.5486 30.28 14.2836 30.0456 14.2836 29.0873V25.2565C14.2836 24.2398 13.5587 23.6143 12.6162 23.6143C11.6974 23.6143 10.9478 24.2398 10.9478 25.2565V29.0873C10.9478 30.0456 10.6817 30.28 9.9094 30.6127C8.04817 31.4334 6.76747 32.9389 6.76747 34.7763C6.76367 35.3992 6.91214 36.0166 7.20436 36.593C7.49658 37.1694 7.92678 37.6933 8.47022 38.1347C9.01366 38.5762 9.65963 38.9263 10.371 39.1651C11.0823 39.4039 11.845 39.5266 12.6152 39.5262Z" fill="black"/>
</svg>
