<svg width="50" height="45" viewBox="0 0 50 45" fill="none" xmlns="http://www.w3.org/2000/svg">
<path d="M14.0443 45C21.778 45 28.0612 40.4253 28.0612 34.7955C28.0612 31.8246 26.3701 29.2241 23.1746 27.1139C22.5834 26.7219 22.4494 26.5076 22.4494 25.9212L22.4757 20.1347L30.7204 16.5966L30.6402 23.3607L26.1008 25.2757C25.3492 25.5885 25.0273 26.1356 25.4306 26.6836C25.8327 27.1723 26.6657 27.2699 27.3634 26.9963L30.6127 25.6277L30.5864 28.6386C30.5864 29.3025 31.1226 29.8112 32.0357 29.8112C32.9488 29.8112 33.5137 29.2833 33.5137 28.6377L33.4587 25.6468L36.6816 26.9963C37.3805 27.2891 38.2123 27.1715 38.5881 26.6836C39.0178 26.1356 38.6958 25.6076 37.9431 25.2757L33.4323 23.3599L33.3785 16.5958L41.3264 19.9979V23.8094C41.3264 24.4158 41.8374 24.8854 42.6692 24.9045C43.4483 24.9045 43.9856 24.4158 43.9856 23.8687L44.012 21.1513L47.6096 22.676C48.4162 23.0279 49.3282 22.9304 49.7865 22.3824C50.2425 21.8152 49.893 21.1897 49.0876 20.8578L45.4086 19.3532L48.6579 17.9845C49.3568 17.6909 49.6249 17.1046 49.2491 16.6167C48.8458 16.0879 48.0129 15.9911 47.2613 16.3231L42.6967 18.2189L34.7213 14.916L42.7769 11.5924L47.3415 13.5082C48.0667 13.8009 48.8722 13.7234 49.3293 13.1954C49.7051 12.7067 49.4095 12.1195 48.7381 11.8468L45.4888 10.4581L49.1139 8.97348C49.9469 8.63986 50.2425 8.03434 49.7853 7.44801C49.3557 6.90088 48.4425 6.78328 47.7184 7.09604L44.0658 8.65988V5.96258C44.0658 5.35623 43.5285 4.90668 42.7505 4.90668C41.8913 4.90668 41.4078 5.35706 41.4078 6.02096L41.3803 9.81336L33.3785 13.2346L33.4323 6.43131L37.9694 4.51635C38.7222 4.18356 39.0178 3.63643 38.6145 3.10848C38.2387 2.61973 37.4069 2.50213 36.708 2.79571L33.4587 4.14436L33.5125 1.19268C33.5125 0.52795 32.9488 0 32.0357 0C31.1501 0 30.5864 0.52795 30.5864 1.19268L30.6127 4.1452L27.3898 2.79571C26.6657 2.50213 25.8591 2.62057 25.4569 3.10848C25.0536 3.63643 25.3492 4.1844 26.1008 4.51635L30.6391 6.43131L30.7193 13.2346L22.5032 9.69576V8.36713C22.5032 4.28115 19.0924 1.56383 14.0443 1.56383C8.96876 1.56383 5.55907 4.28115 5.55907 8.36713L5.58542 25.9212C5.58542 26.5076 5.45137 26.7219 4.88653 27.1139C1.66474 29.2241 0 31.8246 0 34.7955C0 40.4253 6.25682 45 14.0443 45ZM14.0443 42.1651C8.45891 42.1651 3.92068 38.8423 3.92068 34.7955C3.92068 32.3517 5.50522 30.1432 8.35121 28.7553C9.18416 28.345 9.50611 27.9738 9.50611 27.1723V8.48389C9.50611 5.92338 11.3587 4.28115 14.0432 4.28115C16.7024 4.28115 18.5287 5.92338 18.5287 8.48473V27.1723C18.5287 27.973 18.8507 28.345 19.6836 28.7553C22.5296 30.1432 24.1141 32.3526 24.1141 34.7955C24.1141 38.8423 19.6034 42.1651 14.0432 42.1651M29.3765 14.9152L22.4746 17.7301V12.0811L29.3765 14.9152ZM14.0168 39.5262C14.8727 39.5267 15.7202 39.4041 16.5107 39.1654C17.3012 38.9266 18.0191 38.5765 18.6231 38.135C19.227 37.6936 19.7051 37.1696 20.0299 36.5932C20.3546 36.0168 20.5196 35.3993 20.5154 34.7763C20.5154 32.9389 19.0924 31.4334 17.0244 30.6127C16.1651 30.28 15.8706 30.0456 15.8706 29.0873V25.2565C15.8706 24.2398 15.0652 23.6143 14.018 23.6143C12.9971 23.6143 12.1642 24.2398 12.1642 25.2565V29.0873C12.1642 30.0456 11.8686 30.28 11.0104 30.6127C8.94241 31.4334 7.51941 32.9389 7.51941 34.7763C7.51518 35.3992 7.68016 36.0166 8.00485 36.593C8.32954 37.1694 8.80753 37.6933 9.41136 38.1347C10.0152 38.5762 10.7329 38.9263 11.5233 39.1651C12.3137 39.4039 13.1611 39.5266 14.0168 39.5262Z" fill="#1A1A1A"/>
</svg>
