<svg width="61" height="48" viewBox="0 0 61 48" fill="none" xmlns="http://www.w3.org/2000/svg">
<path d="M45.1414 37C47.2056 37 48.872 35.66 48.872 34C48.872 32.34 47.2056 31 45.1414 31C43.0771 31 41.4108 32.34 41.4108 34C41.4108 35.66 43.0771 37 45.1414 37ZM48.872 19H42.6543V24H53.7466L48.872 19ZM15.2966 37C17.3609 37 19.0272 35.66 19.0272 34C19.0272 32.34 17.3609 31 15.2966 31C13.2324 31 11.566 32.34 11.566 34C11.566 35.66 13.2324 37 15.2966 37ZM50.1155 16L57.5767 24V34H52.6026C52.6026 37.32 49.2699 40 45.1414 40C41.0129 40 37.6802 37.32 37.6802 34H22.7578C22.7578 37.32 19.4252 40 15.2966 40C11.1681 40 7.83545 37.32 7.83545 34H2.86133V12C2.86133 9.78 5.07481 8 7.83545 8H42.6543V16H50.1155ZM7.83545 12V30H9.72562C11.0935 28.78 13.0832 28 15.2966 28C17.5101 28 19.4998 28.78 20.8677 30H37.6802V12H7.83545Z" fill="black"/>
</svg>
