<svg width="28" height="21" viewBox="0 0 28 21" fill="none" xmlns="http://www.w3.org/2000/svg">
<path fill-rule="evenodd" clip-rule="evenodd" d="M1.07692 0C0.791305 0 0.517386 0.122917 0.315423 0.341709C0.113461 0.560501 0 0.857247 0 1.16667C0 1.47609 0.113461 1.77283 0.315423 1.99162C0.517386 2.21042 0.791305 2.33333 1.07692 2.33333H26.9231C27.2087 2.33333 27.4826 2.21042 27.6846 1.99162C27.8865 1.77283 28 1.47609 28 1.16667C28 0.857247 27.8865 0.560501 27.6846 0.341709C27.4826 0.122917 27.2087 0 26.9231 0H1.07692ZM0 10.5C0 10.1906 0.113461 9.89383 0.315423 9.67504C0.517386 9.45625 0.791305 9.33333 1.07692 9.33333H26.9231C27.2087 9.33333 27.4826 9.45625 27.6846 9.67504C27.8865 9.89383 28 10.1906 28 10.5C28 10.8094 27.8865 11.1062 27.6846 11.325C27.4826 11.5437 27.2087 11.6667 26.9231 11.6667H1.07692C0.791305 11.6667 0.517386 11.5437 0.315423 11.325C0.113461 11.1062 0 10.8094 0 10.5ZM0 19.8333C0 19.5239 0.113461 19.2272 0.315423 19.0084C0.517386 18.7896 0.791305 18.6667 1.07692 18.6667H26.9231C27.2087 18.6667 27.4826 18.7896 27.6846 19.0084C27.8865 19.2272 28 19.5239 28 19.8333C28 20.1428 27.8865 20.4395 27.6846 20.6583C27.4826 20.8771 27.2087 21 26.9231 21H1.07692C0.791305 21 0.517386 20.8771 0.315423 20.6583C0.113461 20.4395 0 20.1428 0 19.8333Z" fill="#F5F5F5"/>
</svg>
