<svg width="184" height="83" viewBox="0 0 184 83" fill="none" xmlns="http://www.w3.org/2000/svg">
<path d="M13.5029 62.437L13.8789 67.0347H13.5029C13.1234 65.8888 12.6328 65.0259 12.0312 64.4458C11.1647 63.6079 10.0511 63.189 8.69043 63.189C6.83561 63.189 5.4248 63.923 4.45801 65.3911C3.64876 66.63 3.24414 68.1053 3.24414 69.8169C3.24414 71.2062 3.5127 72.4738 4.0498 73.6196C4.58691 74.7655 5.28874 75.6069 6.15527 76.144C7.02897 76.674 7.92415 76.939 8.84082 76.939C9.37793 76.939 9.89714 76.8709 10.3984 76.7349C10.8997 76.5988 11.3831 76.3983 11.8486 76.1333V71.9224C11.8486 71.1919 11.7913 70.7157 11.6768 70.4937C11.5693 70.2645 11.3975 70.0926 11.1611 69.978C10.932 69.8563 10.5238 69.7954 9.93652 69.7954V69.3872H15.5762V69.7954H15.3076C14.749 69.7954 14.3659 69.9816 14.1582 70.354C14.015 70.619 13.9434 71.1418 13.9434 71.9224V76.3804C13.1198 76.8244 12.307 77.1502 11.5049 77.3579C10.7028 77.5656 9.8112 77.6694 8.83008 77.6694C6.01562 77.6694 3.87793 76.7671 2.41699 74.9624C1.32129 73.6089 0.773438 72.0477 0.773438 70.2788C0.773438 68.9969 1.08138 67.7687 1.69727 66.5942C2.42773 65.1978 3.43034 64.1235 4.70508 63.3716C5.77214 62.7485 7.03255 62.437 8.48633 62.437C9.01628 62.437 9.49609 62.48 9.92578 62.5659C10.3626 62.6519 10.9785 62.8416 11.7734 63.1353C12.1745 63.2856 12.443 63.3608 12.5791 63.3608C12.7152 63.3608 12.8298 63.3 12.9229 63.1782C13.0231 63.0493 13.084 62.8022 13.1055 62.437H13.5029ZM19.4648 67.2065V69.4194C20.2884 67.9442 21.1335 67.2065 22 67.2065C22.3939 67.2065 22.7197 67.3283 22.9775 67.5718C23.2354 67.8081 23.3643 68.0838 23.3643 68.3989C23.3643 68.6782 23.2712 68.9146 23.085 69.1079C22.8988 69.3013 22.6768 69.3979 22.4189 69.3979C22.1683 69.3979 21.8854 69.2762 21.5703 69.0327C21.2624 68.7821 21.0332 68.6567 20.8828 68.6567C20.7539 68.6567 20.6143 68.7284 20.4639 68.8716C20.1416 69.1652 19.8086 69.6486 19.4648 70.3218V75.0376C19.4648 75.5819 19.5329 75.9937 19.6689 76.2729C19.762 76.4663 19.9268 76.6274 20.1631 76.7563C20.3994 76.8853 20.7396 76.9497 21.1836 76.9497V77.3364H16.1455V76.9497C16.6468 76.9497 17.0192 76.8709 17.2627 76.7134C17.4417 76.5988 17.5671 76.4162 17.6387 76.1655C17.6745 76.0438 17.6924 75.6965 17.6924 75.1235V71.3101C17.6924 70.1642 17.6673 69.4839 17.6172 69.269C17.5742 69.047 17.4883 68.8859 17.3594 68.7856C17.2376 68.6854 17.0837 68.6353 16.8975 68.6353C16.6755 68.6353 16.4248 68.689 16.1455 68.7964L16.0381 68.4097L19.0137 67.2065H19.4648ZM25.5664 71.2026C25.5592 72.6636 25.9137 73.8094 26.6299 74.6401C27.346 75.4709 28.1875 75.8862 29.1543 75.8862C29.7988 75.8862 30.3574 75.7108 30.8301 75.3599C31.3099 75.0018 31.7109 74.3931 32.0332 73.5337L32.3662 73.7485C32.2158 74.7297 31.779 75.6248 31.0557 76.4341C30.3324 77.2362 29.4264 77.6372 28.3379 77.6372C27.1562 77.6372 26.1429 77.1789 25.2979 76.2622C24.46 75.3384 24.041 74.0994 24.041 72.5454C24.041 70.8625 24.4707 69.5519 25.3301 68.6138C26.1966 67.6685 27.2816 67.1958 28.585 67.1958C29.6878 67.1958 30.5938 67.561 31.3027 68.2915C32.0117 69.0148 32.3662 69.9852 32.3662 71.2026H25.5664ZM25.5664 70.5796H30.1211C30.0853 69.9494 30.0101 69.5054 29.8955 69.2476C29.7165 68.8465 29.4479 68.5314 29.0898 68.3022C28.7389 68.0731 28.3701 67.9585 27.9834 67.9585C27.389 67.9585 26.8555 68.1912 26.3828 68.6567C25.9173 69.1151 25.6452 69.756 25.5664 70.5796ZM35.3418 71.2026C35.3346 72.6636 35.6891 73.8094 36.4053 74.6401C37.1214 75.4709 37.9629 75.8862 38.9297 75.8862C39.5742 75.8862 40.1328 75.7108 40.6055 75.3599C41.0853 75.0018 41.4863 74.3931 41.8086 73.5337L42.1416 73.7485C41.9912 74.7297 41.5544 75.6248 40.8311 76.4341C40.1077 77.2362 39.2018 77.6372 38.1133 77.6372C36.9316 77.6372 35.9183 77.1789 35.0732 76.2622C34.2354 75.3384 33.8164 74.0994 33.8164 72.5454C33.8164 70.8625 34.2461 69.5519 35.1055 68.6138C35.972 67.6685 37.057 67.1958 38.3604 67.1958C39.4632 67.1958 40.3691 67.561 41.0781 68.2915C41.7871 69.0148 42.1416 69.9852 42.1416 71.2026H35.3418ZM35.3418 70.5796H39.8965C39.8607 69.9494 39.7855 69.5054 39.6709 69.2476C39.4919 68.8465 39.2233 68.5314 38.8652 68.3022C38.5143 68.0731 38.1455 67.9585 37.7588 67.9585C37.1644 67.9585 36.6309 68.1912 36.1582 68.6567C35.6927 69.1151 35.4206 69.756 35.3418 70.5796ZM46.3311 69.2905C47.484 67.9012 48.5833 67.2065 49.6289 67.2065C50.166 67.2065 50.6279 67.3426 51.0146 67.6147C51.4014 67.8797 51.7093 68.3201 51.9385 68.936C52.096 69.3657 52.1748 70.0246 52.1748 70.9126V75.1128C52.1748 75.7358 52.2249 76.1584 52.3252 76.3804C52.404 76.5594 52.5293 76.6991 52.7012 76.7993C52.8802 76.8996 53.2061 76.9497 53.6787 76.9497V77.3364H48.8125V76.9497H49.0166C49.4749 76.9497 49.7936 76.8817 49.9727 76.7456C50.1589 76.6024 50.2878 76.3947 50.3594 76.1226C50.388 76.0151 50.4023 75.6785 50.4023 75.1128V71.0845C50.4023 70.1893 50.2842 69.5412 50.0479 69.1401C49.8187 68.7319 49.4284 68.5278 48.877 68.5278C48.0247 68.5278 47.1761 68.9933 46.3311 69.9243V75.1128C46.3311 75.7788 46.3704 76.1906 46.4492 76.3481C46.5495 76.5558 46.6855 76.7098 46.8574 76.8101C47.0365 76.9032 47.3945 76.9497 47.9316 76.9497V77.3364H43.0654V76.9497H43.2803C43.7816 76.9497 44.1182 76.8244 44.29 76.5737C44.4691 76.3159 44.5586 75.8289 44.5586 75.1128V71.4604C44.5586 70.2788 44.5299 69.5591 44.4727 69.3013C44.4225 69.0435 44.3402 68.868 44.2256 68.7749C44.1182 68.6818 43.9714 68.6353 43.7852 68.6353C43.5846 68.6353 43.3447 68.689 43.0654 68.7964L42.9043 68.4097L45.8691 67.2065H46.3311V69.2905ZM63.3467 62.061V75.1128C63.3467 75.7287 63.3896 76.1369 63.4756 76.3374C63.5687 76.5379 63.7083 76.6919 63.8945 76.7993C64.0807 76.8996 64.4281 76.9497 64.9365 76.9497V77.3364H60.1133V76.9497C60.5645 76.9497 60.8724 76.9032 61.0371 76.8101C61.2018 76.717 61.3307 76.563 61.4238 76.3481C61.5169 76.1333 61.5635 75.7215 61.5635 75.1128V66.1753C61.5635 65.0653 61.5384 64.3849 61.4883 64.1343C61.4382 63.8765 61.3558 63.701 61.2412 63.6079C61.1338 63.5148 60.9941 63.4683 60.8223 63.4683C60.6361 63.4683 60.3997 63.5256 60.1133 63.6401L59.9307 63.2642L62.8633 62.061H63.3467ZM68.5889 62.061C68.8896 62.061 69.1439 62.1685 69.3516 62.3833C69.5664 62.591 69.6738 62.8452 69.6738 63.146C69.6738 63.4468 69.5664 63.7046 69.3516 63.9194C69.1439 64.1343 68.8896 64.2417 68.5889 64.2417C68.2881 64.2417 68.0303 64.1343 67.8154 63.9194C67.6006 63.7046 67.4932 63.4468 67.4932 63.146C67.4932 62.8452 67.597 62.591 67.8047 62.3833C68.0195 62.1685 68.2809 62.061 68.5889 62.061ZM69.4805 67.2065V75.1128C69.4805 75.7287 69.5234 76.1405 69.6094 76.3481C69.7025 76.5487 69.835 76.6991 70.0068 76.7993C70.1859 76.8996 70.5081 76.9497 70.9736 76.9497V77.3364H66.1934V76.9497C66.6732 76.9497 66.9954 76.9032 67.1602 76.8101C67.3249 76.717 67.4538 76.563 67.5469 76.3481C67.6471 76.1333 67.6973 75.7215 67.6973 75.1128V71.3208C67.6973 70.2537 67.665 69.5627 67.6006 69.2476C67.5505 69.0184 67.4717 68.8608 67.3643 68.7749C67.2568 68.6818 67.11 68.6353 66.9238 68.6353C66.7233 68.6353 66.4798 68.689 66.1934 68.7964L66.043 68.4097L69.0078 67.2065H69.4805ZM75.0771 69.2905C76.2301 67.9012 77.3294 67.2065 78.375 67.2065C78.9121 67.2065 79.374 67.3426 79.7607 67.6147C80.1475 67.8797 80.4554 68.3201 80.6846 68.936C80.8421 69.3657 80.9209 70.0246 80.9209 70.9126V75.1128C80.9209 75.7358 80.971 76.1584 81.0713 76.3804C81.1501 76.5594 81.2754 76.6991 81.4473 76.7993C81.6263 76.8996 81.9521 76.9497 82.4248 76.9497V77.3364H77.5586V76.9497H77.7627C78.221 76.9497 78.5397 76.8817 78.7188 76.7456C78.9049 76.6024 79.0339 76.3947 79.1055 76.1226C79.1341 76.0151 79.1484 75.6785 79.1484 75.1128V71.0845C79.1484 70.1893 79.0303 69.5412 78.7939 69.1401C78.5648 68.7319 78.1745 68.5278 77.623 68.5278C76.7708 68.5278 75.9222 68.9933 75.0771 69.9243V75.1128C75.0771 75.7788 75.1165 76.1906 75.1953 76.3481C75.2956 76.5558 75.4316 76.7098 75.6035 76.8101C75.7826 76.9032 76.1406 76.9497 76.6777 76.9497V77.3364H71.8115V76.9497H72.0264C72.5277 76.9497 72.8643 76.8244 73.0361 76.5737C73.2152 76.3159 73.3047 75.8289 73.3047 75.1128V71.4604C73.3047 70.2788 73.276 69.5591 73.2188 69.3013C73.1686 69.0435 73.0863 68.868 72.9717 68.7749C72.8643 68.6818 72.7174 68.6353 72.5312 68.6353C72.3307 68.6353 72.0908 68.689 71.8115 68.7964L71.6504 68.4097L74.6152 67.2065H75.0771V69.2905ZM84.8633 71.2026C84.8561 72.6636 85.2106 73.8094 85.9268 74.6401C86.6429 75.4709 87.4844 75.8862 88.4512 75.8862C89.0957 75.8862 89.6543 75.7108 90.127 75.3599C90.6068 75.0018 91.0078 74.3931 91.3301 73.5337L91.6631 73.7485C91.5127 74.7297 91.0758 75.6248 90.3525 76.4341C89.6292 77.2362 88.7233 77.6372 87.6348 77.6372C86.4531 77.6372 85.4398 77.1789 84.5947 76.2622C83.7568 75.3384 83.3379 74.0994 83.3379 72.5454C83.3379 70.8625 83.7676 69.5519 84.627 68.6138C85.4935 67.6685 86.5785 67.1958 87.8818 67.1958C88.9847 67.1958 89.8906 67.561 90.5996 68.2915C91.3086 69.0148 91.6631 69.9852 91.6631 71.2026H84.8633ZM84.8633 70.5796H89.418C89.3822 69.9494 89.307 69.5054 89.1924 69.2476C89.0133 68.8465 88.7448 68.5314 88.3867 68.3022C88.0358 68.0731 87.667 67.9585 87.2803 67.9585C86.6859 67.9585 86.1523 68.1912 85.6797 68.6567C85.2142 69.1151 84.9421 69.756 84.8633 70.5796ZM110.526 62.77L110.688 66.186H110.279C110.201 65.5845 110.093 65.1548 109.957 64.897C109.735 64.4816 109.438 64.1772 109.065 63.9839C108.7 63.7834 108.217 63.6831 107.615 63.6831H105.563V74.812C105.563 75.7072 105.66 76.2658 105.854 76.4878C106.126 76.7886 106.545 76.939 107.11 76.939H107.615V77.3364H101.438V76.939H101.954C102.57 76.939 103.007 76.7528 103.265 76.3804C103.422 76.1512 103.501 75.6284 103.501 74.812V63.6831H101.75C101.07 63.6831 100.586 63.7332 100.3 63.8335C99.9274 63.9696 99.6087 64.231 99.3438 64.6177C99.0788 65.0044 98.9212 65.5272 98.8711 66.186H98.4629L98.6348 62.77H110.526ZM114.812 67.2065V69.4194C115.636 67.9442 116.481 67.2065 117.348 67.2065C117.742 67.2065 118.067 67.3283 118.325 67.5718C118.583 67.8081 118.712 68.0838 118.712 68.3989C118.712 68.6782 118.619 68.9146 118.433 69.1079C118.246 69.3013 118.024 69.3979 117.767 69.3979C117.516 69.3979 117.233 69.2762 116.918 69.0327C116.61 68.7821 116.381 68.6567 116.23 68.6567C116.102 68.6567 115.962 68.7284 115.812 68.8716C115.489 69.1652 115.156 69.6486 114.812 70.3218V75.0376C114.812 75.5819 114.881 75.9937 115.017 76.2729C115.11 76.4663 115.274 76.6274 115.511 76.7563C115.747 76.8853 116.087 76.9497 116.531 76.9497V77.3364H111.493V76.9497C111.994 76.9497 112.367 76.8709 112.61 76.7134C112.789 76.5988 112.915 76.4162 112.986 76.1655C113.022 76.0438 113.04 75.6965 113.04 75.1235V71.3101C113.04 70.1642 113.015 69.4839 112.965 69.269C112.922 69.047 112.836 68.8859 112.707 68.7856C112.585 68.6854 112.431 68.6353 112.245 68.6353C112.023 68.6353 111.772 68.689 111.493 68.7964L111.386 68.4097L114.361 67.2065H114.812ZM124.835 75.9185C123.825 76.6991 123.191 77.1502 122.934 77.272C122.547 77.451 122.135 77.5405 121.698 77.5405C121.018 77.5405 120.456 77.3078 120.012 76.8423C119.575 76.3768 119.356 75.7645 119.356 75.0054C119.356 74.5256 119.464 74.1102 119.679 73.7593C119.972 73.2723 120.481 72.814 121.204 72.3843C121.935 71.9546 123.145 71.4318 124.835 70.8159V70.4292C124.835 69.4481 124.677 68.7749 124.362 68.4097C124.054 68.0444 123.603 67.8618 123.009 67.8618C122.558 67.8618 122.2 67.9836 121.935 68.2271C121.662 68.4705 121.526 68.7498 121.526 69.0649L121.548 69.688C121.548 70.0174 121.462 70.2716 121.29 70.4507C121.125 70.6297 120.907 70.7192 120.635 70.7192C120.37 70.7192 120.151 70.6261 119.979 70.4399C119.815 70.2537 119.732 69.9995 119.732 69.6772C119.732 69.0614 120.048 68.4956 120.678 67.98C121.308 67.4644 122.192 67.2065 123.331 67.2065C124.205 67.2065 124.921 67.3534 125.479 67.647C125.902 67.869 126.214 68.2163 126.414 68.689C126.543 68.9969 126.607 69.6271 126.607 70.5796V73.9204C126.607 74.8586 126.625 75.4351 126.661 75.6499C126.697 75.8576 126.754 75.9972 126.833 76.0688C126.919 76.1405 127.016 76.1763 127.123 76.1763C127.238 76.1763 127.338 76.1512 127.424 76.1011C127.574 76.008 127.864 75.7466 128.294 75.3169V75.9185C127.492 76.9927 126.726 77.5298 125.995 77.5298C125.644 77.5298 125.365 77.408 125.157 77.1646C124.95 76.9211 124.842 76.5057 124.835 75.9185ZM124.835 75.2202V71.4712C123.754 71.9009 123.055 72.2052 122.74 72.3843C122.174 72.6994 121.77 73.0288 121.526 73.3726C121.283 73.7163 121.161 74.0923 121.161 74.5005C121.161 75.0161 121.315 75.4458 121.623 75.7896C121.931 76.1261 122.285 76.2944 122.687 76.2944C123.231 76.2944 123.947 75.9364 124.835 75.2202ZM131.903 69.2905C133.056 67.9012 134.156 67.2065 135.201 67.2065C135.738 67.2065 136.2 67.3426 136.587 67.6147C136.974 67.8797 137.282 68.3201 137.511 68.936C137.668 69.3657 137.747 70.0246 137.747 70.9126V75.1128C137.747 75.7358 137.797 76.1584 137.897 76.3804C137.976 76.5594 138.102 76.6991 138.273 76.7993C138.452 76.8996 138.778 76.9497 139.251 76.9497V77.3364H134.385V76.9497H134.589C135.047 76.9497 135.366 76.8817 135.545 76.7456C135.731 76.6024 135.86 76.3947 135.932 76.1226C135.96 76.0151 135.975 75.6785 135.975 75.1128V71.0845C135.975 70.1893 135.856 69.5412 135.62 69.1401C135.391 68.7319 135.001 68.5278 134.449 68.5278C133.597 68.5278 132.748 68.9933 131.903 69.9243V75.1128C131.903 75.7788 131.943 76.1906 132.021 76.3481C132.122 76.5558 132.258 76.7098 132.43 76.8101C132.609 76.9032 132.967 76.9497 133.504 76.9497V77.3364H128.638V76.9497H128.853C129.354 76.9497 129.69 76.8244 129.862 76.5737C130.041 76.3159 130.131 75.8289 130.131 75.1128V71.4604C130.131 70.2788 130.102 69.5591 130.045 69.3013C129.995 69.0435 129.912 68.868 129.798 68.7749C129.69 68.6818 129.544 68.6353 129.357 68.6353C129.157 68.6353 128.917 68.689 128.638 68.7964L128.477 68.4097L131.441 67.2065H131.903V69.2905ZM146.395 67.2065V70.5581H146.04C145.768 69.5054 145.417 68.7892 144.987 68.4097C144.565 68.0301 144.024 67.8403 143.365 67.8403C142.864 67.8403 142.459 67.9728 142.151 68.2378C141.843 68.5028 141.689 68.7964 141.689 69.1187C141.689 69.5197 141.804 69.8634 142.033 70.1499C142.255 70.4435 142.706 70.755 143.387 71.0845L144.955 71.8472C146.409 72.5562 147.136 73.4907 147.136 74.6509C147.136 75.5461 146.796 76.2694 146.115 76.8208C145.442 77.3651 144.687 77.6372 143.849 77.6372C143.247 77.6372 142.56 77.5298 141.786 77.3149C141.55 77.2433 141.356 77.2075 141.206 77.2075C141.041 77.2075 140.912 77.3006 140.819 77.4868H140.465V73.9741H140.819C141.02 74.9767 141.403 75.7323 141.969 76.2407C142.535 76.7492 143.168 77.0034 143.87 77.0034C144.364 77.0034 144.765 76.8602 145.073 76.5737C145.388 76.2801 145.546 75.9292 145.546 75.521C145.546 75.0269 145.37 74.6115 145.02 74.2749C144.676 73.9383 143.985 73.5122 142.946 72.9966C141.908 72.481 141.228 72.0155 140.905 71.6001C140.583 71.1919 140.422 70.6763 140.422 70.0532C140.422 69.244 140.698 68.5672 141.249 68.0229C141.808 67.4787 142.527 67.2065 143.408 67.2065C143.795 67.2065 144.264 67.2889 144.815 67.4536C145.181 67.561 145.424 67.6147 145.546 67.6147C145.66 67.6147 145.75 67.5897 145.814 67.5396C145.879 67.4894 145.954 67.3784 146.04 67.2065H146.395ZM147.898 68.4741L150.928 67.2495H151.336V69.5483C151.844 68.6818 152.353 68.0767 152.861 67.7329C153.377 67.382 153.918 67.2065 154.483 67.2065C155.472 67.2065 156.295 67.5933 156.954 68.3667C157.763 69.312 158.168 70.5438 158.168 72.062C158.168 73.7593 157.681 75.1629 156.707 76.2729C155.905 77.1825 154.895 77.6372 153.678 77.6372C153.148 77.6372 152.689 77.562 152.303 77.4116C152.016 77.3042 151.694 77.0894 151.336 76.7671V79.7642C151.336 80.4373 151.375 80.8634 151.454 81.0425C151.54 81.2287 151.683 81.3755 151.884 81.4829C152.091 81.5903 152.464 81.644 153.001 81.644V82.0415H147.845V81.644H148.113C148.507 81.6512 148.844 81.576 149.123 81.4185C149.259 81.3397 149.363 81.2108 149.435 81.0317C149.513 80.8599 149.553 80.4159 149.553 79.6997V70.397C149.553 69.7596 149.524 69.355 149.467 69.1831C149.41 69.0112 149.316 68.8823 149.188 68.7964C149.066 68.7104 148.897 68.6675 148.683 68.6675C148.511 68.6675 148.292 68.7176 148.027 68.8179L147.898 68.4741ZM151.336 70.1821V73.856C151.336 74.6509 151.368 75.1737 151.433 75.4243C151.533 75.8397 151.776 76.2049 152.163 76.52C152.557 76.8351 153.051 76.9927 153.646 76.9927C154.362 76.9927 154.942 76.7134 155.386 76.1548C155.966 75.4243 156.256 74.3966 156.256 73.0718C156.256 71.5679 155.926 70.4113 155.268 69.6021C154.809 69.0435 154.265 68.7642 153.635 68.7642C153.291 68.7642 152.951 68.8501 152.614 69.022C152.356 69.1509 151.93 69.5376 151.336 70.1821ZM164.42 67.2065C165.91 67.2065 167.105 67.7723 168.008 68.9038C168.774 69.8706 169.157 70.9806 169.157 72.2339C169.157 73.1147 168.946 74.0063 168.523 74.9087C168.101 75.811 167.517 76.4914 166.772 76.9497C166.035 77.408 165.211 77.6372 164.302 77.6372C162.819 77.6372 161.641 77.0464 160.768 75.8647C160.03 74.8693 159.661 73.7521 159.661 72.5132C159.661 71.6108 159.883 70.7157 160.327 69.8276C160.778 68.9325 161.369 68.2736 162.1 67.8511C162.83 67.4214 163.604 67.2065 164.42 67.2065ZM164.087 67.9048C163.707 67.9048 163.324 68.0194 162.938 68.2485C162.558 68.4705 162.25 68.8644 162.014 69.4302C161.777 69.9959 161.659 70.7228 161.659 71.6108C161.659 73.0431 161.942 74.2785 162.508 75.3169C163.081 76.3553 163.833 76.8745 164.764 76.8745C165.458 76.8745 166.031 76.5881 166.482 76.0151C166.934 75.4422 167.159 74.4575 167.159 73.061C167.159 71.3136 166.783 69.9386 166.031 68.936C165.523 68.2485 164.875 67.9048 164.087 67.9048ZM173.486 67.2065V69.4194C174.31 67.9442 175.155 67.2065 176.021 67.2065C176.415 67.2065 176.741 67.3283 176.999 67.5718C177.257 67.8081 177.386 68.0838 177.386 68.3989C177.386 68.6782 177.293 68.9146 177.106 69.1079C176.92 69.3013 176.698 69.3979 176.44 69.3979C176.19 69.3979 175.907 69.2762 175.592 69.0327C175.284 68.7821 175.055 68.6567 174.904 68.6567C174.775 68.6567 174.636 68.7284 174.485 68.8716C174.163 69.1652 173.83 69.6486 173.486 70.3218V75.0376C173.486 75.5819 173.554 75.9937 173.69 76.2729C173.784 76.4663 173.948 76.6274 174.185 76.7563C174.421 76.8853 174.761 76.9497 175.205 76.9497V77.3364H170.167V76.9497C170.668 76.9497 171.041 76.8709 171.284 76.7134C171.463 76.5988 171.589 76.4162 171.66 76.1655C171.696 76.0438 171.714 75.6965 171.714 75.1235V71.3101C171.714 70.1642 171.689 69.4839 171.639 69.269C171.596 69.047 171.51 68.8859 171.381 68.7856C171.259 68.6854 171.105 68.6353 170.919 68.6353C170.697 68.6353 170.446 68.689 170.167 68.7964L170.06 68.4097L173.035 67.2065H173.486ZM180.791 64.2632V67.4966H183.09V68.2485H180.791V74.6294C180.791 75.2668 180.881 75.6965 181.06 75.9185C181.246 76.1405 181.482 76.2515 181.769 76.2515C182.005 76.2515 182.234 76.1799 182.456 76.0366C182.678 75.8862 182.85 75.6678 182.972 75.3813H183.391C183.14 76.0832 182.785 76.6131 182.327 76.9712C181.869 77.3221 181.396 77.4976 180.909 77.4976C180.58 77.4976 180.257 77.408 179.942 77.229C179.627 77.0428 179.395 76.7814 179.244 76.4448C179.094 76.1011 179.019 75.5747 179.019 74.8657V68.2485H177.461V67.894C177.855 67.7365 178.256 67.4715 178.664 67.0991C179.079 66.7196 179.448 66.272 179.771 65.7563C179.935 65.4842 180.164 64.9865 180.458 64.2632H180.791Z" fill="#F5F5F5"/>
<path d="M182.8 5.18944C168.386 6.01444 151.591 9.64558 137.913 13.8053C130.71 16.0015 124.369 18.3281 119.688 20.4515C117.346 21.5246 115.419 22.5353 114.022 23.4231C112.624 24.3223 111.783 25.135 111.551 25.5777C109.899 28.7549 110.556 32.131 111.155 35.2734C112.263 41.1385 109.944 45.3933 106.534 49.4441C110.559 49.0765 113.843 47.6917 115.894 44.715C117.386 42.5482 117.625 40.5906 118.151 38.2631C118.676 35.9355 119.517 33.286 122.268 30.1526L122.302 30.1091L122.337 30.0657C123.824 28.7251 126.644 27.8238 130.485 26.8117C134.311 25.7984 139.119 24.7862 144.324 23.7678C154.572 21.7655 166.343 19.7454 174.864 17.7578C178.255 14.5437 180.811 9.65835 182.8 5.18944ZM173.036 20.3599C164.717 22.1782 154.309 23.974 145.169 25.7567C139.996 26.7659 135.236 27.7701 131.556 28.7478C127.907 29.7163 125.314 30.7829 124.623 31.3766C123.454 32.7054 122.69 33.9023 122.153 35.0236C135.355 35.2179 153.201 33.5846 165.46 30.4627C170.015 27.3775 171.75 24.0569 173.036 20.3599ZM162.951 33.2804C150.24 36.0716 133.831 37.325 121.363 37.0453C121.182 37.6064 121.049 38.1481 120.932 38.6908C120.842 39.0862 120.766 39.4941 120.675 39.8894C132.033 41.5595 142.137 41.8775 153.242 41.4632C158.561 39.2589 161.487 36.3562 162.951 33.2804ZM149.813 43.6183C139.925 43.8438 130.557 43.4176 120.204 41.8994C120.058 42.4056 119.88 42.9096 119.67 43.4227C125.18 46.0195 134.936 47.4722 141.663 47.8136C146.523 46.7362 148.403 45.4466 149.813 43.6183ZM118.663 45.3485C118.465 45.5755 118.114 46.0787 117.928 46.318C119.981 48.7833 125.358 50.544 131.562 51.8011C134.969 51.1253 136.148 50.3482 137.5 49.5835C131.248 49.0119 123.889 47.7299 118.666 45.3488L118.663 45.3485Z" fill="#FBFBFB"/>
<path d="M-0.000126685 5.18944C14.4139 6.01444 31.2088 9.64558 44.8867 13.8053C52.0903 16.0015 58.4313 18.3281 63.1118 20.4515C65.4536 21.5246 67.3807 22.5353 68.778 23.4231C70.176 24.3223 71.0166 25.135 71.2484 25.5777C72.9006 28.7549 72.2434 32.131 71.6445 35.2734C70.5366 41.1385 72.856 45.3933 76.2657 49.4441C72.2406 49.0765 68.9565 47.6917 66.9062 44.715C65.4142 42.5482 65.1743 40.5906 64.6489 38.2631C64.1236 35.9355 63.2828 33.286 60.5323 30.1526L60.4976 30.1091L60.4629 30.0657C58.9757 28.7251 56.1561 27.8238 52.3146 26.8117C48.489 25.7984 43.6808 24.7862 38.4762 23.7678C28.2276 21.7655 16.4566 19.7454 7.9363 17.7578C4.5448 14.5437 1.98855 9.65835 -0.000126685 5.18944ZM9.76423 20.3599C18.0826 22.1782 28.4912 23.974 37.6312 25.7567C42.8035 26.7659 47.5635 27.7701 51.2441 28.7478C54.8924 29.7163 57.4858 30.7829 58.1765 31.3766C59.346 32.7054 60.1101 33.9023 60.6472 35.0236C47.4445 35.2179 29.5993 33.5846 17.34 30.4627C12.7848 27.3775 11.0498 24.0569 9.76423 20.3599ZM19.8484 33.2804C32.5602 36.0716 48.9689 37.325 61.4366 37.0453C61.618 37.6064 61.7506 38.1481 61.8673 38.6908C61.958 39.0862 62.0338 39.4941 62.1245 39.8894C50.767 41.5595 40.663 41.8775 29.5576 41.4632C24.2392 39.2589 21.3129 36.3562 19.8484 33.2804ZM32.9868 43.6183C42.8748 43.8438 52.2424 43.4176 62.5962 41.8994C62.7421 42.4056 62.9196 42.9096 63.1294 43.4227C57.62 46.0195 47.8638 47.4722 41.1368 47.8136C36.2766 46.7362 34.3968 45.4466 32.9868 43.6183ZM64.1372 45.3485C64.3352 45.5755 64.6853 46.0787 64.8714 46.318C62.8186 48.7833 57.4415 50.544 51.2373 51.8011C47.8311 51.1253 46.6523 50.3482 45.3 49.5835C51.5516 49.0119 58.9109 47.7299 64.1341 45.3488L64.1372 45.3485Z" fill="#FBFBFB"/>
<path d="M109.898 37.2313C109.898 46.1015 101.652 53.3479 91.4079 53.3479C81.1633 53.3479 72.918 46.1015 72.918 37.2313C72.918 28.3611 81.1633 21.1147 91.4079 21.1147C101.652 21.1147 109.898 28.3611 109.898 37.2313Z" stroke="#EFEFEF" stroke-width="0.5"/>
<path d="M107.779 37.3456C107.779 45.1445 100.54 51.5755 91.4666 51.5755C82.3934 51.5755 75.1543 45.1445 75.1543 37.3456C75.1543 29.5467 82.3934 23.1157 91.4666 23.1157C100.54 23.1157 107.779 29.5467 107.779 37.3456Z" stroke="#FBFBFB"/>
<path d="M105.615 37.3414C105.615 43.9778 99.2934 49.4225 91.4086 49.4225C83.5238 49.4225 77.2021 43.9778 77.2021 37.3414C77.2021 30.705 83.5238 25.2603 91.4086 25.2603C99.2934 25.2603 105.615 30.705 105.615 37.3414Z" stroke="#EFEFEF" stroke-width="0.5"/>
</svg>
